# xmcd
#
# Track frame offsets: 
#        150
#        17031
#        32967
#        47269
#        62075
#        79912
#        99171
#        114176
#        130253
#        145125
#        160011
#        174848
#        190696
#        204113
#        217544
#        232740
#        246426
#        259712
#
# Disc length: 3669 seconds
#
# Revision: 2
# Processed by: cddbd v1.5.2PL0 Copyright (c) Steve Scherf et al.
# Submitted via: ExactAudioCopy v0.90b4
#
DISCID=d60e5312
DTITLE=Various Artist - OLON Single Top 100 Volume 430 (Deel 1)
DYEAR=2010
DGENRE=Pop
TTITLE0=Frank Van Etten - Hallelujah
TTITLE1=Jurk! - Ik Zou Zo Graag
TTITLE2=Go Back To The Zoo - Electric
TTITLE3=Gebroeders Ko - Geef Mij De Sleutel Van Jouw Voordeur
TTITLE4=Acda En De Munnik - Eva
TTITLE5=Kane - Love Over Healing
TTITLE6=Ray and Anita - In Da Name Of Love
TTITLE7=Willem Barth - Bella Bella Signorina
TTITLE8=Paultje Poets - Als We Straks Naar Tirol Toe Gaan
TTITLE9=Dominique Vos - Trots
TTITLE10=Present Danger - Iron Rain
TTITLE11=Het Feestteam - Dromen Zijn Bedrog
TTITLE12=Dikdakkers - Hakkestamp
TTITLE13=The Double DJ's - Boven Op De Berg (Dwergenlied)
TTITLE14=Lawineboys - Ik Ben Liever Vrijgezel
TTITLE15=DJ Maurice Vs. Daim Vega - Red Horse
TTITLE16=Rob Ronalds - Hela Hola (Tut Hola)
TTITLE17=André Van Duin - Ome Cor Heb Een Drilboor
EXTD=
EXTT0=
EXTT1=
EXTT2=
EXTT3=
EXTT4=
EXTT5=
EXTT6=
EXTT7=
EXTT8=
EXTT9=
EXTT10=
EXTT11=
EXTT12=
EXTT13=
EXTT14=
EXTT15=
EXTT16=
EXTT17=
PLAYORDER=
